<svg xmlns="http://www.w3.org/2000/svg" viewBox="261 653 1021 173" preserveAspectRatio="xMidYMid meet"><defs><clipPath id="a"><path d="M261 653.7h167.3v167.3H261z" clip-rule="nonzero"/></clipPath></defs><g clip-path="url(#a)"><path fill="#082b43" fill-rule="evenodd" d="M354.5 820.9h-19.7a2 2 0 0 1-2-1.6l-3.5-16c-7.3-1.7-14.2-4.5-20.6-8.5l-13.8 8.9a2 2 0 0 1-2.5-.3l-13.9-14a2 2 0 0 1-.3-2.4l8.8-13.8a70 70 0 0 1-8.5-21.6l-16-3.4a2 2 0 0 1-1.5-2v-19.6c0-1 .6-1.8 1.6-2l16-3.5a70 70 0 0 1 8.5-20.6l-8.8-13.8a2 2 0 0 1 .3-2.5l13.9-13.9a2 2 0 0 1 2.4-.3l13.8 8.8a70 70 0 0 1 21.8-8.9l3.5-16a2 2 0 0 1 2-1.5h19.6c1 0 1.8.6 2 1.6l3.4 16a70 70 0 0 1 20.7 8.6l13.8-8.9a2 2 0 0 1 2.4.3l13.9 13.9a2 2 0 0 1 .3 2.5l-8.9 13.8a70 70 0 0 1 8.6 20.6l16 3.5c.9.2 1.6 1 1.6 2v19.7c0 1-.7 1.8-1.6 2l-16 3.5a70 70 0 0 1-8.6 20.6l8.9 13.8a2 2 0 0 1-.3 2.4l-13.9 13.9a2 2 0 0 1-2.4.3l-13.8-8.8a70 70 0 0 1-20.7 8.5l-3.4 16a2 2 0 0 1-2 1.5Zm-9.9-35.7a48 48 0 1 0 0-96 48 48 0 0 0 0 96Z"/></g><path fill="#082b43" fill-rule="evenodd" d="m317.1 737.3 10.5 10.4a3.4 3.4 0 0 1-2.8 5.7 4 4 0 0 1-2.8-1.2l-13.1-13.1a3.4 3.4 0 0 1 0-5.6l13.1-13.2a3.4 3.4 0 0 1 5.5 6.6Zm54.9 0-10.4-10.4a3.4 3.4 0 0 1 2.5-5.7c1 0 2 .3 2.7 1l13.3 13.2a3.4 3.4 0 0 1 0 5.6l-13.3 13.1a3.3 3.3 0 0 1-2.7 1.2 3.4 3.4 0 0 1-2.8-5.7Z"/><path fill="#082b43" fill-rule="evenodd" d="M335.8 756.5c-3 0-5-3.3-3.4-5.9l17.6-30.6a4 4 0 0 1 3.4-2c3 .1 5 3.3 3.5 5.9l-17.7 30.6a4 4 0 0 1-3.4 2Z"/><g transform="translate(456 652)" fill="#082b43"><path d="M36.1 103.8V142H13.7V33.3h42.4c8.2 0 15.4 1.5 21.6 4.5 6.2 3 11 7.2 14.3 12.7 3.3 5.5 5 11.8 5 18.8 0 10.6-3.6 19-10.9 25.2-7.3 6.1-17.4 9.2-30.3 9.2Zm0-18.1h20c6 0 10.5-1.4 13.6-4.2s4.7-7 4.7-12.1c0-5.4-1.6-9.7-4.7-13s-9-5-14.5-5H36.1Zm0 0"/><path d="M108.9 101c0-8 1.5-15.2 4.6-21.4 3.1-6.3 7.5-11.2 13.3-14.6s12.6-5.2 20.2-5.2c10.9 0 19.8 3.3 26.7 10 6.9 6.7 10.7 15.7 11.5 27.2l.2 5.5c0 12.4-3.5 22.3-10.4 29.8S156.2 143.8 144.5 143.8c-11.6 0-20.9-3.7-27.9-11.2-7-7.5-10.4-17.6-10.4-30.4l-.3-1.2Zm21.6 1.6c0 7.7 1.4 13.5 4.3 17.6 2.9 4 7 6.1 12.4 6.1 5.2 0 9.3-2 12.3-6 2.9-4 4.4-10.4 4.4-19.2 0-7.5-1.5-13.3-4.4-17.5-3-4.1-7-6.2-12.3-6.2-5.3 0-9.4 2-12.3 6.2-2.9 4.1-4.4 10.4-4.4 19Z"/><path d="M237.7 81.6c-3 .4-5.5.2-7.8.2-8.2 0-13.5 2.7-16 8.3v51.9H192.5V61.3h20.4l.6 9.6c4.3-7.4 10.3-11.1 18-11.1 2.4 0 4.6.3 6.7 1Z"/><path d="M269.8 41.5v19.8h13.8v15.8h-13.8v40.4c0 3 .6 5.1 1.7 6.4 1.1 1.3 3.3 2 6.6 2 2.4 0 4.5-.2 6.3-.5v16.3a56 56 0 0 1-13 2c-15.2 0-22.9-7.7-23.2-23V77.2h-11.8V61.3h11.8V41.5Z"/><path d="M367.9 70.9 389.3 33.4h25.8l-31.7 54-32.5 54.7h-26l32.5-54.7L323 33.4h25.8Z"/><path d="M468.5 142.1c-1-1.9-1.7-4.4-2.1-7.2-5.3 5.8-12 8.8-20.4 8.8-7.9 0-14.5-2.3-19.7-6.9-5.2-4.6-7.8-10.4-7.8-17.3 0-8.6 3.2-15.1 9.5-19.7 6.4-4.6 15.6-6.9 27.5-7h10v-4.6c0-3.7-1-6.7-2.9-9s-5.8-3.3-10-3.3c-3.6 0-6.5.9-8.5 2.6s-3.1 4.1-3.1 7.1h-21.6c0-4.7 1.4-9 4.3-13 2.9-4 7-7.1 12.3-9.4 5.2-2.3 11.2-3.4 17.8-3.4 10 0 17.8 2.5 23.7 7.5 5.8 5 8.7 12 8.7 21.1v35c0 7.7 1.1 13.5 3.2 17.4v1.3Zm-17.7-15a15 15 0 0 0 8.8-2.1c2.7-1.4 4.7-3.3 6-5.7v-13.9H458c-10.8 0-16.6 3.7-17.2 11.2l-.1 1.3c0 2.7 1 4.9 2.8 6.6 1.9 1.7 4.5 2.6 7.8 2.6Z"/><path d="m529.3 61.3.7 9c5.7-7 13.4-10.5 23.2-10.5 10.4 0 17.6 4.1 21.4 12.3 5.7-8.2 13.8-12.3 24.3-12.3 8.8 0 15.3 2.6 19.6 7.7 4.3 5.1 6.4 12.8 6.4 23v51.6h-21.6v-51.5c0-4.6-.9-8-2.7-10.1s-5-3.2-9.5-3.2c-6.5 0-11 3.1-13.5 9.3v57.5h-21.6V90.6c0-4.7-.9-8-2.8-10.2-1.8-2-5-3.1-9.4-3.1-6.1 0-10.5 2.5-13.3 7.6V142h-21.6V61.3Z"/><path d="M703.6 102.5c0 12.4-2.8 22.4-8.5 29.9-5.6 7.5-13.3 11.2-22.9 11.2-8.2 0-14.8-2.8-19.8-8.5v38.1h-21.6V61.3h20l.8 7.9c5.2-6.3 12-9.4 20.5-9.4 10 0 17.7 3.7 23.2 11.1 5.5 7.4 8.3 17.5 8.3 30.5v1Zm-21.6-.5c0-7.5-1.3-13.3-4-17.4-2.6-4-6.5-6.1-11.6-6.1-6.8 0-11.4 2.6-14 7.8v33.1c2.7 5.3 7.4 8 14.1 8 10.3 0 15.5-8.5 15.5-25.3Z"/><path d="M735.7 142h-21.6V27.4h21.6Z"/><path d="M791 143.6c-11.9 0-21.5-3.6-29-10.9s-11.1-16.9-11.1-29l.4-2c0-8.2 1.5-15.4 4.7-21.8 3.1-6.4 7.6-11.3 13.3-14.8s11.5-5.2 18.9-5.2c11 0 19.7 3.5 26 10.4 6.4 7 9.6 16.9 9.6 29.7v8.8h-51.5c.7 5.3 2.8 9.5 6.3 12.7 3.5 3.2 8 4.8 13.4 4.8 8.3 0 14.8-3 19.5-9l10.6 11.8c-3.2 4.6-7.6 8.2-13.2 10.7-5.5 2.6-11.6 3.9-18.3 3.9ZM788.5 77.3c-4.3 0-7.8 1.5-10.4 4.3-2.7 2.9-4.4 7-5.1 12.4h30v-1.7c-.1-4.8-1.4-8.5-3.9-11.1-2.5-2.6-6-3.9-10.6-3.9Z"/></g></svg>
